<svg width="50" height="50" viewBox="0 0 50 50" fill="none" xmlns="http://www.w3.org/2000/svg">
<path d="M25 37.5C25 30.5964 30.5964 25 37.5 25V25C44.4036 25 50 30.5964 50 37.5V37.5C50 44.4036 44.4036 50 37.5 50V50C30.5964 50 25 44.4036 25 37.5V37.5Z" fill="#E76855"/>
<path d="M0 12.5C0 5.59644 5.59644 0 12.5 0V0C19.4036 0 25 5.59644 25 12.5V12.5C25 19.4036 19.4036 25 12.5 25V25C5.59644 25 0 19.4036 0 12.5V12.5Z" fill="#F07E69"/>
<path d="M0 37.5C0 30.5964 5.59644 25 12.5 25V25C19.4036 25 25 30.5964 25 37.5V37.5C25 44.4036 19.4036 50 12.5 50V50C5.59644 50 0 44.4036 0 37.5V37.5Z" fill="#FF927A"/>
<path d="M25 12.5C25 5.59644 30.5964 0 37.5 0V0C44.4036 0 50 5.59644 50 12.5V12.5C50 19.4036 44.4036 25 37.5 25V25C30.5964 25 25 19.4036 25 12.5V12.5Z" fill="#C84B39"/>
<path d="M12 24.5C12 17.5964 17.5964 12 24.5 12V12C31.4036 12 37 17.5964 37 24.5V24.5C37 31.4036 31.4036 37 24.5 37V37C17.5964 37 12 31.4036 12 24.5V24.5Z" fill="#FFD0C5"/>
</svg>
