<svg width="50" height="50" viewBox="0 0 50 50" fill="none" xmlns="http://www.w3.org/2000/svg">
<path d="M25 37.5C25 30.5964 30.5964 25 37.5 25V25C44.4036 25 50 30.5964 50 37.5V37.5C50 44.4036 44.4036 50 37.5 50V50C30.5964 50 25 44.4036 25 37.5V37.5Z" fill="black"/>
<path d="M0 12.5C0 5.59644 5.59644 0 12.5 0V0C19.4036 0 25 5.59644 25 12.5V12.5C25 19.4036 19.4036 25 12.5 25V25C5.59644 25 0 19.4036 0 12.5V12.5Z" fill="black"/>
<path d="M0 37.5C0 30.5964 5.59644 25 12.5 25V25C19.4036 25 25 30.5964 25 37.5V37.5C25 44.4036 19.4036 50 12.5 50V50C5.59644 50 0 44.4036 0 37.5V37.5Z" fill="black"/>
<path d="M25 12.5C25 5.59644 30.5964 0 37.5 0V0C44.4036 0 50 5.59644 50 12.5V12.5C50 19.4036 44.4036 25 37.5 25V25C30.5964 25 25 19.4036 25 12.5V12.5Z" fill="black"/>
<path d="M12 24.5C12 17.5964 17.5964 12 24.5 12V12C31.4036 12 37 17.5964 37 24.5V24.5C37 31.4036 31.4036 37 24.5 37V37C17.5964 37 12 31.4036 12 24.5V24.5Z" fill="black"/>
<path d="M8 12C8 9.79086 9.79086 8 12 8V8C14.2091 8 16 9.79086 16 12V12C16 14.2091 14.2091 16 12 16V16C9.79086 16 8 14.2091 8 12V12Z" fill="white"/>
<path d="M34 12C34 9.79086 35.7909 8 38 8V8C40.2091 8 42 9.79086 42 12V12C42 14.2091 40.2091 16 38 16V16C35.7909 16 34 14.2091 34 12V12Z" fill="white"/>
<path d="M8 37C8 34.7909 9.79086 33 12 33V33C14.2091 33 16 34.7909 16 37V37C16 39.2091 14.2091 41 12 41V41C9.79086 41 8 39.2091 8 37V37Z" fill="white"/>
<path d="M34 37C34 34.7909 35.7909 33 38 33V33C40.2091 33 42 34.7909 42 37V37C42 39.2091 40.2091 41 38 41V41C35.7909 41 34 39.2091 34 37V37Z" fill="white"/>
</svg>
